<svg id="Layer_1" data-name="Layer 1" xmlns="http://www.w3.org/2000/svg" viewBox="0 0 542.5 542.5"><path d="M376.25,122.5h17.5v35h-17.5Z"/><path d="M398.59,244.08l7.84-15.65a22.81,22.81,0,0,1-12.68-20.5V175h-17.5v32.93A40.2,40.2,0,0,0,398.59,244.08Z"/><path d="M420.91,240.16l15.66-7.82,8.75,17.5-15.66,7.82Z"/><path d="M488.58,285.28l-12.66-53.17a52.61,52.61,0,0,0-19.56-29.84l-13.55-10.16A17.56,17.56,0,0,1,436,180.43L423,82.89A35.1,35.1,0,0,0,388.28,52.5h-2.19a43.71,43.71,0,0,0-42.45,33.14L318.08,187.88a26,26,0,0,0-13-1.13L282,190.6a26.35,26.35,0,0,0-21.51,21.2l-9.25,50.87C160.25,264.17,0,278.52,0,323.75v105a26.25,26.25,0,0,0,52.5,0v-17.5a8.75,8.75,0,0,1,17.5,0V507.5H87.5V411.25a26.25,26.25,0,0,0-52.5,0v17.5a8.75,8.75,0,0,1-17.5,0V347.68c33,20.31,107.34,30.49,175,34.75v63.82a26.25,26.25,0,0,0,52.5,0V420H227.5v26.25a8.75,8.75,0,0,1-17.5,0V383.43c18.73.92,36.6,1.41,52.5,1.53v96.29a26.25,26.25,0,0,0,52.5,0v-17.5a8.75,8.75,0,0,1,17.5,0v52.5a26.25,26.25,0,0,0,52.5,0V472.5H367.5v43.75a8.75,8.75,0,0,1-17.5,0v-52.5a26.25,26.25,0,0,0-52.5,0v17.5a8.75,8.75,0,0,1-17.5,0V385c35.16-.28,79.92-2.29,122.5-7V437.5H420V376.25c0-.15,0-.29,0-.44C463.74,370,503.29,361,525,347.68V463.75a8.75,8.75,0,0,1-17.5,0v-35a26.25,26.25,0,0,0-52.5,0v70a8.75,8.75,0,0,1-17.5,0V490H420v8.75a26.25,26.25,0,0,0,52.5,0v-70a8.75,8.75,0,0,1,17.5,0v35a26.25,26.25,0,0,0,52.5,0v-140c0-15.57-17.8-28.17-53.92-38.47ZM277.65,214.93a8.8,8.8,0,0,1,7.17-7.07l23.1-3.85A8.74,8.74,0,0,1,318,211.2l4,24.17a43.44,43.44,0,0,0,12.21,23.74l18.33,18.33,12.37-12.38L346.6,246.74a26.1,26.1,0,0,1-7.34-14.25l-4-24.17a26.11,26.11,0,0,0-2.4-7.4l27.76-111A26.23,26.23,0,0,1,386.08,70h2.18a17.55,17.55,0,0,1,17.35,15.19l13,97.55a35.15,35.15,0,0,0,13.7,23.37l13.53,10.16a35.08,35.08,0,0,1,13.05,19.89l12.22,51.34a110.76,110.76,0,0,1-45.86,10H301.67a95.58,95.58,0,0,1-23.34-2.88L263.82,291ZM416.21,358.62a43.74,43.74,0,0,0-40-26.12h-35V350h35A26.17,26.17,0,0,1,397.48,361c-35.23,4-77.4,6.55-126.23,6.55-164.18,0-253.75-28.9-253.75-43.75,0-14.11,79.24-40.84,230.49-43.48L243.68,304l30.41,7.61A113.82,113.82,0,0,0,301.67,315H425.25A128,128,0,0,0,482,301.52c35.14,9.77,43,19.31,43,22.23,0,9.62-37.64,25.13-108.78,34.87Z"/><path d="M105,402.5h17.5V455H105Z"/><path d="M175,516.25a8.75,8.75,0,0,1-17.5,0V420H140v96.25a26.25,26.25,0,0,0,52.5,0V507.5H175Z"/><path d="M156.89,306.25H140.62a26.2,26.2,0,0,0-21.84,11.69l-12.3,18.45L121,346.1l12.3-18.46a8.76,8.76,0,0,1,7.28-3.89h16.27a8.76,8.76,0,0,1,7.28,3.89l12.3,18.46L191,336.39l-12.3-18.45a26.19,26.19,0,0,0-21.83-11.69Z"/><path d="M227.5,332.5h35V350h-35Z"/><path d="M166.25,192.5A96.25,96.25,0,1,0,70,96.25,96.36,96.36,0,0,0,166.25,192.5ZM87.5,96.25a78.33,78.33,0,0,1,4.43-25.81,26.17,26.17,0,0,1,0,51.61A78.23,78.23,0,0,1,87.5,96.25Zm89.37,77.95A26.06,26.06,0,0,1,212.31,160a78.16,78.16,0,0,1-35.44,14.21ZM227.22,46.49a26.18,26.18,0,1,1-38.58-25.7A78.81,78.81,0,0,1,227.22,46.49Zm-61-29h.11a43.62,43.62,0,1,0,72.49,48.24,78.47,78.47,0,0,1-13,81.83A43.32,43.32,0,0,0,201.25,140a43.8,43.8,0,0,0-42.75,34.6,78.76,78.76,0,0,1-58.85-36.54,43.47,43.47,0,0,0,0-83.64,78.69,78.69,0,0,1,66.6-36.92Z"/><path d="M17.5,70H35V52.5H52.5V35H35V17.5H17.5V35H0V52.5H17.5Z"/><path d="M87.5,262.5H105V245h17.5V227.5H105V210H87.5v17.5H70V245H87.5Z"/><path d="M297.5,52.5H315V35h17.5V17.5H315V0H297.5V17.5H280V35h17.5Z"/><path d="M525,175V157.5H507.5V175H490v17.5h17.5V210H525V192.5h17.5V175Z"/><path d="M455,35h17.5V52.5H455Z"/><path d="M472.5,122.5H490V140H472.5Z"/><path d="M280,122.5h17.5V140H280Z"/><path d="M227.5,210H245v17.5H227.5Z"/><path d="M35,157.5H52.5V175H35Z"/></svg>