<?xml version="1.0" encoding="utf-8"?>
<!-- Generator: Adobe Illustrator 26.1.0, SVG Export Plug-In . SVG Version: 6.00 Build 0)  -->
<svg version="1.1" id="Layer_1" xmlns="http://www.w3.org/2000/svg" xmlns:xlink="http://www.w3.org/1999/xlink" x="0px" y="0px"
	 viewBox="0 0 105.4 113.4" style="enable-background:new 0 0 105.4 113.4;" xml:space="preserve">
<style type="text/css">
	.st0{fill:#FFFFFF;}
</style>
<g>
	<path class="st0" d="M18,92.4l-8.4,17.9c-0.3,0.7-0.3,1.5,0.1,2.1c0.4,0.6,1.1,1,1.9,1h82.2l0,0c1.2,0,2.2-1,2.2-2.2
		c0-0.5-0.2-1-0.5-1.3L87,92.7c11.7-10,18.4-24.5,18.4-40C105.4,23.6,81.7,0,52.7,0S0,23.6,0,52.7C0,68,6.6,82.3,18,92.4L18,92.4z
		 M15.1,109l7-14.9h60.7l7.4,14.9H15.1z M52.6,68.6l7.2,6.7v14.3H44.2V75.4L52.6,68.6z M52.7,4.4c26.6,0,48.3,21.7,48.3,48.3
		c0,14.4-6.3,27.8-17.3,37H64.2V79.5l0.8,0.8c0.9,0.8,2.3,0.8,3.1-0.1c0.8-0.9,0.8-2.3-0.1-3.1l-4.5-4.2l0,0l-9.3-8.8
		c-0.8-0.8-2-0.8-2.9-0.1l-16,13c-0.9,0.8-1.1,2.2-0.3,3.1c0.4,0.5,1.1,0.8,1.7,0.8c0.5,0,1-0.2,1.4-0.5l1.7-1.3v10.7H21.7
		c-11-9.2-17.3-22.6-17.3-37C4.4,26.1,26.1,4.4,52.7,4.4L52.7,4.4z"/>
	<path class="st0" d="M18.3,43.4c0.1,0,0.2,0.1,0.4,0.1c0.5,0,0.9-0.3,1-0.7c4.7-13.5,17.4-22.6,31.7-22.6c0.6,0,1.1-0.5,1.1-1.1
		S52,18,51.4,18c-15.2,0-28.8,9.7-33.8,24.1C17.4,42.5,17.7,43.2,18.3,43.4L18.3,43.4z"/>
	<path class="st0" d="M17.8,53.7c0-1.4,0.1-2.8,0.3-4.1c0.1-0.6-0.4-1.2-1-1.2c-0.6-0.1-1.2,0.4-1.2,1c-0.2,1.4-0.3,2.9-0.3,4.4
		c0,0.6,0.5,1.1,1.1,1.1C17.3,54.8,17.8,54.3,17.8,53.7L17.8,53.7z"/>
	<path class="st0" d="M34.1,43.1c0,1.7-1.4,3.1-3.1,3.1c-1.7,0-3.1-1.4-3.1-3.1c0-1.7,1.4-3.1,3.1-3.1
		C32.7,40.1,34.1,41.4,34.1,43.1"/>
	<path class="st0" d="M37.4,60.7c0,1.7-1.4,3.1-3.1,3.1c-1.7,0-3.1-1.4-3.1-3.1c0-1.7,1.4-3.1,3.1-3.1C36.1,57.6,37.4,59,37.4,60.7"
		/>
	<path class="st0" d="M54.5,50.6c0,1.7-1.4,3.1-3.1,3.1c-1.7,0-3.1-1.4-3.1-3.1c0-1.7,1.4-3.1,3.1-3.1S54.5,48.9,54.5,50.6"/>
	<path class="st0" d="M62.8,33.2c0,1.7-1.4,3.1-3.1,3.1c-1.7,0-3.1-1.4-3.1-3.1c0-1.7,1.4-3.1,3.1-3.1
		C61.4,30.2,62.8,31.5,62.8,33.2"/>
	<path class="st0" d="M89.7,70c0,1.7-1.4,3.1-3.1,3.1s-3.1-1.4-3.1-3.1s1.4-3.1,3.1-3.1C88.3,66.9,89.7,68.3,89.7,70"/>
	<path class="st0" d="M73.6,20.4c0,1.7-1.4,3.1-3.1,3.1s-3.1-1.4-3.1-3.1s1.4-3.1,3.1-3.1C72.2,17.4,73.6,18.7,73.6,20.4"/>
	<path class="st0" d="M88.7,44.4c0,1.7-1.4,3.1-3.1,3.1s-3.1-1.4-3.1-3.1s1.4-3.1,3.1-3.1C87.3,41.4,88.7,42.7,88.7,44.4"/>
	<path class="st0" d="M74.3,55.6c0,1.7-1.4,3.1-3.1,3.1s-3.1-1.4-3.1-3.1s1.4-3.1,3.1-3.1C73,52.6,74.3,53.9,74.3,55.6"/>
	<path class="st0" d="M23.1,71.9c0,1.7-1.4,3.1-3.1,3.1s-3.1-1.4-3.1-3.1s1.4-3.1,3.1-3.1C21.8,68.8,23.1,70.2,23.1,71.9"/>
</g>
</svg>
